ffmpeg started on 2025-06-21 at 12:45:50
Report written to "D:\Convert\FFMetrics\reports\psnr_report-6.txt"
Log level: 32
Command line:
ffmpeg -hide_banner -nostdin -i "G:\\\xc0\xed\xe8\xec\xe5\\[\xd2\xee\xef-4]\\\xc4\xe5\xf0\xe6\xe0\xf1\xfc \xc7\xe0 \xd0\xf3\xea\xe8\\Hand_Shakers_[12_END]_[AniLibria.TV]_[HDTV-Rip_720p]_HEVC.mkv" -i "G:\\\xc0\xed\xe8\xec\xe5\\[\xd2\xee\xef-4]\\\xc4\xe5\xf0\xe6\xe0\xf1\xfc \xc7\xe0 \xd0\xf3\xea\xe8\\Hand_Shakers_[12_END]_[AniLibria.TV]_[HDTV-Rip_720p].mkv" -lavfi "[0:v]settb=AVTB,setpts=PTS-STARTPTS,format=pix_fmts=yuv420p10,fps=30000/1001,scale=1280:720:flags=bicubic[main];[1:v]settb=AVTB,setpts=PTS-STARTPTS,format=pix_fmts=yuv420p,fps=30000/1001,scale=1280:720:flags=bicubic[ref];[main][ref]psnr=eof_action=endall:stats_file='D\\:/Convert/FFMetrics/logs/psnr_logfile-6.txt'" -f null -
Input #0, matroska,webm, from 'G:\Аниме\[Топ-4]\Держась За Руки\Hand_Shakers_[12_END]_[AniLibria.TV]_[HDTV-Rip_720p]_HEVC.mkv':
  Metadata:
    ENCODER         : Lavf61.7.100
  Duration: 00:23:29.83, start: -0.021000, bitrate: 2455 kb/s
  Stream #0:0(jpn): Video: hevc (Main 10), yuv420p10le(tv, bt709, progressive), 1280x720 [SAR 1:1 DAR 16:9], 29.97 fps, 29.97 tbr, 1k tbn (default)
      Metadata:
        ENCODER         : Lavc61.19.100 libx265
        BPS             : 2256433
        DURATION        : 00:23:29.674366664
        NUMBER_OF_FRAMES: 42248
        NUMBER_OF_BYTES : 397604504
        _STATISTICS_WRITING_APP: mkvpropedit v66.0.0 ('Josie') 64-bit
        _STATISTICS_WRITING_DATE_UTC: 2025-06-20 17:57:13
        _STATISTICS_TAGS: BPS DURATION NUMBER_OF_FRAMES NUMBER_OF_BYTES
  Stream #0:1(rus): Audio: aac (LC), 48000 Hz, stereo, fltp (default) (forced)
      Metadata:
        title           : Амикири и Анзен
        ENCODER         : Lavc61.19.100 aac
        BPS             : 194296
        DURATION        : 00:23:29.813000000
        NUMBER_OF_FRAMES: 66086
        NUMBER_OF_BYTES : 34240271
        _STATISTICS_WRITING_APP: mkvpropedit v66.0.0 ('Josie') 64-bit
        _STATISTICS_WRITING_DATE_UTC: 2025-06-20 17:57:13
        _STATISTICS_TAGS: BPS DURATION NUMBER_OF_FRAMES NUMBER_OF_BYTES
  Stream #0:2(rus): Subtitle: ass (ssa) (default) (forced)
      Metadata:
        title           : Надписи
        BPS             : 15
        DURATION        : 00:16:03.400000000
        NUMBER_OF_FRAMES: 13
        NUMBER_OF_BYTES : 1819
        _STATISTICS_WRITING_APP: mkvpropedit v66.0.0 ('Josie') 64-bit
        _STATISTICS_WRITING_DATE_UTC: 2025-06-20 17:57:13
        _STATISTICS_TAGS: BPS DURATION NUMBER_OF_FRAMES NUMBER_OF_BYTES
  Stream #0:3(rus): Subtitle: ass (ssa)
      Metadata:
        title           : Субтитры
        BPS             : 86
        DURATION        : 00:21:49.260000000
        NUMBER_OF_FRAMES: 206
        NUMBER_OF_BYTES : 14170
        _STATISTICS_WRITING_APP: mkvpropedit v66.0.0 ('Josie') 64-bit
        _STATISTICS_WRITING_DATE_UTC: 2025-06-20 17:57:13
        _STATISTICS_TAGS: BPS DURATION NUMBER_OF_FRAMES NUMBER_OF_BYTES
Input #1, matroska,webm, from 'G:\Аниме\[Топ-4]\Держась За Руки\Hand_Shakers_[12_END]_[AniLibria.TV]_[HDTV-Rip_720p].mkv':
  Metadata:
    encoder         : libebml v1.4.2 + libmatroska v1.6.4
    creation_time   : 2024-12-27T17:08:35.000000Z
  Duration: 00:23:29.81, start: 0.000000, bitrate: 5348 kb/s
  Stream #1:0(jpn): Video: h264 (High), yuv420p(tv, bt709, progressive), 1280x720 [SAR 1:1 DAR 16:9], 29.97 fps, 29.97 tbr, 1k tbn (default)
      Metadata:
        BPS             : 5154583
        DURATION        : 00:23:29.675000000
        NUMBER_OF_FRAMES: 42248
        NUMBER_OF_BYTES : 908285954
        _STATISTICS_WRITING_APP: mkvmerge v66.0.0 ('Josie') 64-bit
        _STATISTICS_WRITING_DATE_UTC: 2024-12-27 17:08:35
        _STATISTICS_TAGS: BPS DURATION NUMBER_OF_FRAMES NUMBER_OF_BYTES
  Stream #1:1(rus): Audio: aac (LC), 48000 Hz, stereo, fltp (default) (forced)
      Metadata:
        title           : Амикири и Анзен
        BPS             : 189375
        DURATION        : 00:23:29.813000000
        NUMBER_OF_FRAMES: 66085
        NUMBER_OF_BYTES : 33372925
        _STATISTICS_WRITING_APP: mkvmerge v66.0.0 ('Josie') 64-bit
        _STATISTICS_WRITING_DATE_UTC: 2024-12-27 17:08:35
        _STATISTICS_TAGS: BPS DURATION NUMBER_OF_FRAMES NUMBER_OF_BYTES
  Stream #1:2(rus): Subtitle: ass (ssa) (default) (forced)
      Metadata:
        title           : Надписи
        BPS             : 15
        DURATION        : 00:16:03.400000000
        NUMBER_OF_FRAMES: 13
        NUMBER_OF_BYTES : 1819
        _STATISTICS_WRITING_APP: mkvmerge v66.0.0 ('Josie') 64-bit
        _STATISTICS_WRITING_DATE_UTC: 2024-12-27 17:08:35
        _STATISTICS_TAGS: BPS DURATION NUMBER_OF_FRAMES NUMBER_OF_BYTES
  Stream #1:3(rus): Subtitle: ass (ssa)
      Metadata:
        title           : Субтитры
        BPS             : 86
        DURATION        : 00:21:49.260000000
        NUMBER_OF_FRAMES: 206
        NUMBER_OF_BYTES : 14170
        _STATISTICS_WRITING_APP: mkvmerge v66.0.0 ('Josie') 64-bit
        _STATISTICS_WRITING_DATE_UTC: 2024-12-27 17:08:35
        _STATISTICS_TAGS: BPS DURATION NUMBER_OF_FRAMES NUMBER_OF_BYTES
  Stream #1:4: Attachment: ttf
      Metadata:
        filename        : 8289.otf
        mimetype        : application/x-truetype-font
  Stream #1:5: Attachment: ttf
      Metadata:
        filename        : 8651.ttf
        mimetype        : application/x-truetype-font
  Stream #1:6: Attachment: ttf
      Metadata:
        filename        : 10200.ttf
        mimetype        : application/x-truetype-font
  Stream #1:7: Attachment: ttf
      Metadata:
        filename        : 10322.ttf
        mimetype        : application/x-truetype-font
  Stream #1:8: Attachment: ttf
      Metadata:
        filename        : 10351.ttf
        mimetype        : application/x-truetype-font
Stream mapping:
  Stream #0:0 (hevc) -> settb:default
  Stream #1:0 (h264) -> settb:default
  psnr:default -> Stream #0:0 (wrapped_avframe)
  Stream #0:1 -> #0:1 (aac (native) -> pcm_s16le (native))
Output #0, null, to 'pipe:':
  Metadata:
    encoder         : Lavf61.7.100
  Stream #0:0: Video: wrapped_avframe, yuv420p10le(tv, bt709, progressive), 1280x720 [SAR 1:1 DAR 16:9], q=2-31, 200 kb/s, 29.97 fps, 29.97 tbn
      Metadata:
        encoder         : Lavc61.19.100 wrapped_avframe
  Stream #0:1(rus): Audio: pcm_s16le, 48000 Hz, stereo, s16, 1536 kb/s (default) (forced)
      Metadata:
        title           : Амикири и Анзен
        _STATISTICS_TAGS: BPS DURATION NUMBER_OF_FRAMES NUMBER_OF_BYTES
        BPS             : 194296
        DURATION        : 00:23:29.813000000
        NUMBER_OF_FRAMES: 66086
        NUMBER_OF_BYTES : 34240271
        _STATISTICS_WRITING_APP: mkvpropedit v66.0.0 ('Josie') 64-bit
        _STATISTICS_WRITING_DATE_UTC: 2025-06-20 17:57:13
        encoder         : Lavc61.19.100 pcm_s16le
frame=  234 fps=0.0 q=-0.0 size=N/A time=00:00:07.80 bitrate=N/A speed=15.2x    frame=  484 fps=473 q=-0.0 size=N/A time=00:00:16.14 bitrate=N/A speed=15.8x    frame=  718 fps=467 q=-0.0 size=N/A time=00:00:23.95 bitrate=N/A speed=15.6x    frame=  963 fps=468 q=-0.0 size=N/A time=00:00:32.13 bitrate=N/A speed=15.6x    frame= 1201 fps=467 q=-0.0 size=N/A time=00:00:40.07 bitrate=N/A speed=15.6x    frame= 1446 fps=468 q=-0.0 size=N/A time=00:00:48.24 bitrate=N/A speed=15.6x    frame= 1640 fps=455 q=-0.0 size=N/A time=00:00:54.72 bitrate=N/A speed=15.2x    frame= 1859 fps=451 q=-0.0 size=N/A time=00:01:02.02 bitrate=N/A speed=  15x    frame= 2081 fps=449 q=-0.0 size=N/A time=00:01:09.43 bitrate=N/A speed=  15x    frame= 2330 fps=453 q=-0.0 size=N/A time=00:01:17.74 bitrate=N/A speed=15.1x    frame= 2549 fps=450 q=-0.0 size=N/A time=00:01:25.05 bitrate=N/A speed=  15x    frame= 3030 fps=490 q=-0.0 size=N/A time=00:01:41.10 bitrate=N/A speed=16.4x    frame= 3404 fps=507 q=-0.0 size=N/A time=00:01:53.58 bitrate=N/A speed=16.9x    frame= 3676 fps=509 q=-0.0 size=N/A time=00:02:02.65 bitrate=N/A speed=  17x    frame= 3930 fps=508 q=-0.0 size=N/A time=00:02:11.13 bitrate=N/A speed=16.9x    frame= 4200 fps=509 q=-0.0 size=N/A time=00:02:20.14 bitrate=N/A speed=  17x    frame= 4554 fps=519 q=-0.0 size=N/A time=00:02:31.95 bitrate=N/A speed=17.3x    frame= 4954 fps=534 q=-0.0 size=N/A time=00:02:45.29 bitrate=N/A speed=17.8x    frame= 5352 fps=546 q=-0.0 size=N/A time=00:02:58.57 bitrate=N/A speed=18.2x    frame= 5711 fps=554 q=-0.0 size=N/A time=00:03:10.55 bitrate=N/A speed=18.5x    frame= 6023 fps=556 q=-0.0 size=N/A time=00:03:20.96 bitrate=N/A speed=18.6x    frame= 6413 fps=565 q=-0.0 size=N/A time=00:03:33.98 bitrate=N/A speed=18.9x    frame= 6747 fps=569 q=-0.0 size=N/A time=00:03:45.12 bitrate=N/A speed=  19x    frame= 7107 fps=574 q=-0.0 size=N/A time=00:03:57.13 bitrate=N/A speed=19.2x    frame= 7466 fps=579 q=-0.0 size=N/A time=00:04:09.11 bitrate=N/A speed=19.3x    frame= 7866 fps=587 q=-0.0 size=N/A time=00:04:22.46 bitrate=N/A speed=19.6x    frame= 8251 fps=593 q=-0.0 size=N/A time=00:04:35.30 bitrate=N/A speed=19.8x    frame= 8561 fps=593 q=-0.0 size=N/A time=00:04:45.65 bitrate=N/A speed=19.8x    frame= 8858 fps=593 q=-0.0 size=N/A time=00:04:55.56 bitrate=N/A speed=19.8x    frame= 9217 fps=596 q=-0.0 size=N/A time=00:05:07.54 bitrate=N/A speed=19.9x    frame= 9503 fps=595 q=-0.0 size=N/A time=00:05:17.08 bitrate=N/A speed=19.8x    frame= 9837 fps=596 q=-0.0 size=N/A time=00:05:28.22 bitrate=N/A speed=19.9x    frame=10241 fps=602 q=-0.0 size=N/A time=00:05:41.70 bitrate=N/A speed=20.1x    frame=10708 fps=611 q=-0.0 size=N/A time=00:05:57.29 bitrate=N/A speed=20.4x    frame=11048 fps=612 q=-0.0 size=N/A time=00:06:08.63 bitrate=N/A speed=20.4x    frame=11403 fps=614 q=-0.0 size=N/A time=00:06:20.48 bitrate=N/A speed=20.5x    frame=11825 fps=620 q=-0.0 size=N/A time=00:06:34.56 bitrate=N/A speed=20.7x    frame=12229 fps=624 q=-0.0 size=N/A time=00:06:48.04 bitrate=N/A speed=20.8x    frame=12529 fps=623 q=-0.0 size=N/A time=00:06:58.05 bitrate=N/A speed=20.8x    frame=12749 fps=618 q=-0.0 size=N/A time=00:07:05.39 bitrate=N/A speed=20.6x    frame=13031 fps=617 q=-0.0 size=N/A time=00:07:14.80 bitrate=N/A speed=20.6x    frame=13258 fps=612 q=-0.0 size=N/A time=00:07:22.37 bitrate=N/A speed=20.4x    frame=13572 fps=612 q=-0.0 size=N/A time=00:07:32.85 bitrate=N/A speed=20.4x    frame=13893 fps=612 q=-0.0 size=N/A time=00:07:43.56 bitrate=N/A speed=20.4x    frame=14287 fps=616 q=-0.0 size=N/A time=00:07:56.70 bitrate=N/A speed=20.5x    frame=14770 fps=623 q=-0.0 size=N/A time=00:08:12.82 bitrate=N/A speed=20.8x    frame=15144 fps=625 q=-0.0 size=N/A time=00:08:25.30 bitrate=N/A speed=20.9x    frame=15510 fps=627 q=-0.0 size=N/A time=00:08:37.51 bitrate=N/A speed=20.9x    frame=15771 fps=624 q=-0.0 size=N/A time=00:08:46.22 bitrate=N/A speed=20.8x    frame=16006 fps=621 q=-0.0 size=N/A time=00:08:54.06 bitrate=N/A speed=20.7x    frame=16267 fps=618 q=-0.0 size=N/A time=00:09:02.77 bitrate=N/A speed=20.6x    frame=16621 fps=620 q=-0.0 size=N/A time=00:09:14.58 bitrate=N/A speed=20.7x    frame=16962 fps=621 q=-0.0 size=N/A time=00:09:25.96 bitrate=N/A speed=20.7x    frame=17229 fps=619 q=-0.0 size=N/A time=00:09:34.87 bitrate=N/A speed=20.6x    frame=17507 fps=617 q=-0.0 size=N/A time=00:09:44.15 bitrate=N/A speed=20.6x    frame=17743 fps=615 q=-0.0 size=N/A time=00:09:52.02 bitrate=N/A speed=20.5x    frame=18029 fps=613 q=-0.0 size=N/A time=00:10:01.56 bitrate=N/A speed=20.5x    frame=18409 fps=616 q=-0.0 size=N/A time=00:10:14.24 bitrate=N/A speed=20.5x    frame=18777 fps=617 q=-0.0 size=N/A time=00:10:26.52 bitrate=N/A speed=20.6x    frame=19248 fps=622 q=-0.0 size=N/A time=00:10:42.24 bitrate=N/A speed=20.8x    frame=19743 fps=628 q=-0.0 size=N/A time=00:10:58.75 bitrate=N/A speed=20.9x    frame=20050 fps=627 q=-0.0 size=N/A time=00:11:09.00 bitrate=N/A speed=20.9x    frame=20337 fps=626 q=-0.0 size=N/A time=00:11:18.57 bitrate=N/A speed=20.9x    frame=20675 fps=627 q=-0.0 size=N/A time=00:11:29.85 bitrate=N/A speed=20.9x    frame=20996 fps=627 q=-0.0 size=N/A time=00:11:40.56 bitrate=N/A speed=20.9x    frame=21242 fps=624 q=-0.0 size=N/A time=00:11:48.77 bitrate=N/A speed=20.8x    frame=21566 fps=624 q=-0.0 size=N/A time=00:11:59.58 bitrate=N/A speed=20.8x    frame=21892 fps=624 q=-0.0 size=N/A time=00:12:10.46 bitrate=N/A speed=20.8x    frame=22344 fps=628 q=-0.0 size=N/A time=00:12:25.54 bitrate=N/A speed=  21x    frame=22737 fps=630 q=-0.0 size=N/A time=00:12:38.65 bitrate=N/A speed=  21x    frame=23259 fps=635 q=-0.0 size=N/A time=00:12:56.07 bitrate=N/A speed=21.2x    frame=23848 fps=642 q=-0.0 size=N/A time=00:13:15.72 bitrate=N/A speed=21.4x    frame=24418 fps=649 q=-0.0 size=N/A time=00:13:34.74 bitrate=N/A speed=21.6x    frame=24983 fps=655 q=-0.0 size=N/A time=00:13:53.59 bitrate=N/A speed=21.8x    frame=25556 fps=661 q=-0.0 size=N/A time=00:14:12.71 bitrate=N/A speed=22.1x    frame=25901 fps=661 q=-0.0 size=N/A time=00:14:24.23 bitrate=N/A speed=22.1x    frame=26480 fps=667 q=-0.0 size=N/A time=00:14:43.54 bitrate=N/A speed=22.3x    frame=27013 fps=672 q=-0.0 size=N/A time=00:15:01.33 bitrate=N/A speed=22.4x    frame=27590 fps=677 q=-0.0 size=N/A time=00:15:20.58 bitrate=N/A speed=22.6x    frame=28134 fps=682 q=-0.0 size=N/A time=00:15:38.73 bitrate=N/A speed=22.8x    frame=28511 fps=683 q=-0.0 size=N/A time=00:15:51.31 bitrate=N/A speed=22.8x    frame=28814 fps=682 q=-0.0 size=N/A time=00:16:01.42 bitrate=N/A speed=22.7x    frame=29332 fps=685 q=-0.0 size=N/A time=00:16:18.71 bitrate=N/A speed=22.9x    frame=29900 fps=690 q=-0.0 size=N/A time=00:16:37.66 bitrate=N/A speed=  23x    frame=30441 fps=694 q=-0.0 size=N/A time=00:16:55.71 bitrate=N/A speed=23.2x    frame=30975 fps=698 q=-0.0 size=N/A time=00:17:13.53 bitrate=N/A speed=23.3x    frame=31592 fps=704 q=-0.0 size=N/A time=00:17:34.11 bitrate=N/A speed=23.5x    frame=32114 fps=707 q=-0.0 size=N/A time=00:17:51.53 bitrate=N/A speed=23.6x    frame=32663 fps=712 q=-0.0 size=N/A time=00:18:09.85 bitrate=N/A speed=23.7x    frame=33121 fps=714 q=-0.0 size=N/A time=00:18:25.13 bitrate=N/A speed=23.8x    frame=33620 fps=716 q=-0.0 size=N/A time=00:18:41.78 bitrate=N/A speed=23.9x    frame=33998 fps=716 q=-0.0 size=N/A time=00:18:54.39 bitrate=N/A speed=23.9x    frame=34377 fps=717 q=-0.0 size=N/A time=00:19:07.04 bitrate=N/A speed=23.9x    frame=34791 fps=718 q=-0.0 size=N/A time=00:19:20.85 bitrate=N/A speed=23.9x    frame=35209 fps=719 q=-0.0 size=N/A time=00:19:34.80 bitrate=N/A speed=  24x    frame=35583 fps=719 q=-0.0 size=N/A time=00:19:47.28 bitrate=N/A speed=  24x    frame=35987 fps=719 q=-0.0 size=N/A time=00:20:00.76 bitrate=N/A speed=  24x    frame=36502 fps=722 q=-0.0 size=N/A time=00:20:17.95 bitrate=N/A speed=24.1x    frame=37080 fps=726 q=-0.0 size=N/A time=00:20:37.23 bitrate=N/A speed=24.2x    frame=37474 fps=727 q=-0.0 size=N/A time=00:20:50.38 bitrate=N/A speed=24.2x    frame=37939 fps=728 q=-0.0 size=N/A time=00:21:05.89 bitrate=N/A speed=24.3x    frame=38418 fps=730 q=-0.0 size=N/A time=00:21:21.88 bitrate=N/A speed=24.4x    frame=38740 fps=729 q=-0.0 size=N/A time=00:21:32.62 bitrate=N/A speed=24.3x    frame=39052 fps=728 q=-0.0 size=N/A time=00:21:43.03 bitrate=N/A speed=24.3x    frame=39428 fps=728 q=-0.0 size=N/A time=00:21:55.58 bitrate=N/A speed=24.3x    frame=39821 fps=728 q=-0.0 size=N/A time=00:22:08.69 bitrate=N/A speed=24.3x    frame=40139 fps=727 q=-0.0 size=N/A time=00:22:19.30 bitrate=N/A speed=24.3x    frame=40372 fps=725 q=-0.0 size=N/A time=00:22:27.07 bitrate=N/A speed=24.2x    frame=40707 fps=724 q=-0.0 size=N/A time=00:22:38.25 bitrate=N/A speed=24.2x    frame=41050 fps=723 q=-0.0 size=N/A time=00:22:49.70 bitrate=N/A speed=24.1x    frame=41469 fps=724 q=-0.0 size=N/A time=00:23:03.68 bitrate=N/A speed=24.2x    frame=41872 fps=725 q=-0.0 size=N/A time=00:23:17.12 bitrate=N/A speed=24.2x    [Parsed_psnr_10 @ 00000196bf4f4e80] PSNR y:42.624131 u:44.532928 v:45.590852 average:43.288086 min:35.354282 max:63.482347
[out#0/null @ 00000196bf8693c0] video:18153KiB audio:264344KiB subtitle:0KiB other streams:0KiB global headers:0KiB muxing overhead: unknown
frame=42248 fps=727 q=-0.0 Lsize=N/A time=00:23:29.67 bitrate=N/A speed=24.3x    
